# xmcd
#
# Track frame offsets:
# 150
# 23402
# 38280
# 54175
# 67370
# 80462
# 93662
# 100095
# 109780
# 125420
# 141880
# 152797
# 166370
# 178410
# 196442
# 209755
# 228842
# 249790
# 265595
# 276070
#
# Disc length: 3890 seconds
#
#
# Revision: 3
# Processed by: cddbd v1.5.2PL0 Copyright (c) Steve Scherf et al.
# Submitted via: FreeRIP 2.951 
#
DISCID=0f0f3014
DTITLE=Brucelose - Ao Vivo - Vol. 1
DYEAR=1998
DGENRE=Forró
TTITLE0=Abertura
TTITLE1=Me Leva  Vaqueiro
TTITLE2=Sei Que Vou Te Amar
TTITLE3=Paixão e Desejo
TTITLE4=Raio de Neon
TTITLE5=O Vaqueiro
TTITLE6=Percorre o Meu Nordeste
TTITLE7=Flor de Araça
TTITLE8=Paixão Envolvente
TTITLE9=Amor, Vinho e Paixão
TTITLE10=O Diia Nascendo
TTITLE11=Por que Brigamos
TTITLE12=Gemedeira
TTITLE13=Frevo Mulher
TTITLE14=Cometa  Mambembe
TTITLE15=Agora Vem Você de Novo
TTITLE16=Sals de Reboco
TTITLE17=Vem Amor
TTITLE18=Nada Acabou
TTITLE19=Me Liga
EXTD=YEAR: 1998 ID3G: 100
EXTT0=
EXTT1=
EXTT2=
EXTT3=
EXTT4=
EXTT5=
EXTT6=
EXTT7=
EXTT8=
EXTT9=
EXTT10=
EXTT11=
EXTT12=
EXTT13=
EXTT14=
EXTT15=
EXTT16=
EXTT17=
EXTT18=
EXTT19=
PLAYORDER=
